<svg id="Component_1_1" data-name="Component 1 – 1" xmlns="http://www.w3.org/2000/svg" width="194.304" height="24.989" viewBox="0 0 194.304 24.989">
  <g id="Group_5" data-name="Group 5">
    <path id="Path_5" data-name="Path 5" d="M28.611,280.287v.379H20.552v-.379c1.455,0,2.49-.552,2.49-3.6v-19.2l-7.922,23.489h-.379L5.122,259.594v12.524c0,5.984.9,8.164,4.324,8.164v.379H0v-.379c3.8,0,4.739-2.317,4.739-8.164V258.937A4.1,4.1,0,0,0,.9,256.689v-.379H6.882l9.272,20.62,6.882-20.62h5.4v.379c-1.487,0-2.664.588-2.664,3.042v16.953C25.774,279.73,27.124,280.287,28.611,280.287Z" transform="translate(0 -255.991)" fill="#0c3651"/>
    <path id="Path_6" data-name="Path 6" d="M68.265,272.475v-12.8c0-2.458-.762-2.974-2.285-2.974v-.379h7.439v.379c-1.487,0-2.527.21-2.527,3.042v13.044c0,4.429,2.559,6.919,6.572,6.919,3.977,0,6.5-2.627,6.5-7.124v-8.962c0-4.912-.137-6.919-3.8-6.919v-.379H88.4v.379c-4.187,0-4.046,2.007-4.046,6.919v8.962c.036,5.605-3.457,8.406-8.337,8.406C71.654,280.981,68.265,278.112,68.265,272.475Z" transform="translate(-35.887 -255.996)" fill="#0c3651"/>
    <path id="Path_7" data-name="Path 7" d="M142.774,256.31v.347c-4.876,0-4.775,3.357-4.775,8.164v15.845h-.725l-14.531-18.96v10.381c0,4.6,0,8.2,4.465,8.2v.379h-9.756v-.379c4.88,0,4.912-3.53,4.912-8.2V261.259l-1.455-1.9c-2.212-2.768-3.215-2.627-4.119-2.7v-.347h5.364l15.466,20.342V264.821c0-4.807,0-8.164-4.429-8.164v-.347h9.583Z" transform="translate(-63.523 -255.991)" fill="#0c3651"/>
    <path id="Path_8" data-name="Path 8" d="M196.564,280.665h-6.882v-.379c1.455,0,1.834-1.108.588-4.014l-1.245-3.288h-9.341c-1.455,4.15-2.627,7.37,1.87,7.3v.379H174.22v-.379c1.523,0,2.385-.379,5.19-8.232l5.71-15.74h.242c2.112,5.085,8.406,21,8.406,21,1.108,2.769,1.8,2.905,2.8,2.974v.383Zm-7.676-8.059-4.707-12.141-4.392,12.141Z" transform="translate(-94.76 -255.991)" fill="#0c3651"/>
    <path id="Path_9" data-name="Path 9" d="M234.941,280.595c-5.085,0-7.612-1.87-7.612-1.87v-6.641h.347c.173,5.291,1.523,8.128,7.266,8.128,6.02,0,6.5-6.262,2.527-9.031l-5.916-3.909c-2.49-1.729-6.294-4.67-3.735-8.962,0,0,1.7-2.7,6.194-2.7a16.03,16.03,0,0,1,7.4,1.624v5.811H241c-.137-4.219-1.108-7.056-6.987-7.056-3.735,0-7.334,4.949-1.765,8.547l5.916,3.877c4.67,3.079,4.88,6.955,3.457,9.341C241.618,277.758,240.2,280.595,234.941,280.595Z" transform="translate(-123.449 -255.61)" fill="#0c3651"/>
    <path id="Path_10" data-name="Path 10" d="M288.944,280.665h-6.882v-.379c1.455,0,1.833-1.108.588-4.014l-1.245-3.288h-9.341c-1.455,4.15-2.627,7.37,1.87,7.3v.379H266.6v-.379c1.523,0,2.385-.379,5.19-8.232l5.71-15.74h.242c2.112,5.085,8.406,21,8.406,21,1.108,2.769,1.8,2.905,2.8,2.974v.383Zm-7.681-8.059-4.707-12.141-4.392,12.141Z" transform="translate(-145.006 -255.991)" fill="#0c3651"/>
    <path id="Path_11" data-name="Path 11" d="M325.617,280.665H319.46v-.31c1.487,0,2.007-1.177,2.007-3.53v-16.78c0-2.144-.483-3.425-2.007-3.425v-.31h6.157c4.807,0,8.684.52,8.684,5.952a5.591,5.591,0,0,1-5.569,5.915c2.249,0,7.2.483,7.2,6.294C335.925,280.46,331.6,280.665,325.617,280.665Zm-1.35-23.972v11.453h2.458c2.249,0,4.392-.625,4.392-5.916,0-5.049-2.869-5.537-5.222-5.537Zm2.454,11.831h-2.454v11.763H325.9c3.457,0,6.782.068,6.782-5.952C332.673,268.661,329.421,268.524,326.721,268.524Z" transform="translate(-173.757 -255.991)" fill="#0c3651"/>
    <path id="Path_12" data-name="Path 12" d="M380.944,256.31v5.674h-.379c-.068-5.291-5.049-5.327-5.779-5.327h-2.732v21.067c0,2.248.83,2.559,2.285,2.559v.379h-7.2v-.379c1.455,0,2.285-.31,2.285-2.559V256.657H366.7c-1.592,0-5.71.036-5.779,5.327h-.347V256.31Z" transform="translate(-196.117 -255.991)" fill="#0c3651"/>
    <path id="Path_13" data-name="Path 13" d="M417.524,256.31v.347c-1.487,0-2.144.415-2.144,2.559V277.2c0,2.353.693,3.079,2.144,3.079v.379H410.4v-.379c1.487,0,2.18-.725,2.18-3.079V259.215c0-2.144-.657-2.559-2.18-2.559v-.347Z" transform="translate(-223.22 -255.991)" fill="#0c3651"/>
  </g>
</svg>
